{
  "accessors": [
    {
      "bufferView": 2,
      "componentType": 5126,
      "count": 2891,
      "max": [
        9.937828063964844,
        9.914125442504883,
        10.241917610168457
      ],
      "min": [
        -9.937828063964844,
        -9.914125442504883,
        -10.241917610168457
      ],
      "type": "VEC3"
    },
    {
      "bufferView": 2,
      "byteOffset": 34692,
      "componentType": 5126,
      "count": 2891,
      "max": [
        0.9995880126953125,
        0.9997430443763733,
        0.9996970891952515
      ],
      "min": [
        -0.9992446303367615,
        -0.9999681711196899,
        -0.9998052716255188
      ],
      "type": "VEC3"
    },
    {
      "bufferView": 3,
      "componentType": 5126,
      "count": 2891,
      "max": [
        0.9984716176986694,
        0.9887941479682922,
        0.9994508624076843,
        1.0
      ],
      "min": [
        -0.9630619883537292,
        -0.9841259121894836,
        -0.9990432858467102,
        1.0
      ],
      "type": "VEC4"
    },
    {
      "bufferView": 1,
      "componentType": 5126,
      "count": 2891,
      "max": [
        0.970703125,
        0.958913266658783
      ],
      "min": [
        0.029481975361704826,
        0.029296875
      ],
      "type": "VEC2"
    },
    {
      "bufferView": 1,
      "byteOffset": 23128,
      "componentType": 5126,
      "count": 2891,
      "max": [
        0.970703125,
        0.958913266658783
      ],
      "min": [
        0.029481975361704826,
        0.029296875
      ],
      "type": "VEC2"
    },
    {
      "bufferView": 1,
      "byteOffset": 46256,
      "componentType": 5126,
      "count": 2891,
      "max": [
        0.970703125,
        0.958913266658783
      ],
      "min": [
        0.029481975361704826,
        0.029296875
      ],
      "type": "VEC2"
    },
    {
      "bufferView": 0,
      "componentType": 5125,
      "count": 15108,
      "type": "SCALAR"
    }
  ],
  "asset": {
    "extras": {
      "author": "Grand Dog Studio (https://sketchfab.com/GrandDogStudio)",
      "license": "CC-BY-4.0 (http://creativecommons.org/licenses/by/4.0/)",
      "source": "https://sketchfab.com/3d-models/3d-melon-01-d9c7f3d06d2a4e4eae0fd0cfca9870aa",
      "title": "3D Melon - 01"
    },
    "generator": "Sketchfab-12.65.0",
    "version": "2.0"
  },
  "bufferViews": [
    {
      "buffer": 0,
      "byteLength": 60432,
      "name": "floatBufferViews",
      "target": 34963
    },
    {
      "buffer": 0,
      "byteLength": 69384,
      "byteOffset": 60432,
      "byteStride": 8,
      "name": "floatBufferViews",
      "target": 34962
    },
    {
      "buffer": 0,
      "byteLength": 69384,
      "byteOffset": 129816,
      "byteStride": 12,
      "name": "floatBufferViews",
      "target": 34962
    },
    {
      "buffer": 0,
      "byteLength": 46256,
      "byteOffset": 199200,
      "byteStride": 16,
      "name": "floatBufferViews",
      "target": 34962
    }
  ],
  "buffers": [
    {
      "byteLength": 245456,
      "uri": "scene.bin"
    }
  ],
  "images": [
    {
      "uri": "textures/Melon_baseColor.jpeg"
    },
    {
      "uri": "textures/Melon_metallicRoughness.png"
    },
    {
      "uri": "textures/Melon_normal.png"
    }
  ],
  "materials": [
    {
      "doubleSided": true,
      "name": "Melon",
      "normalTexture": {
        "index": 2
      },
      "occlusionTexture": {
        "index": 1
      },
      "pbrMetallicRoughness": {
        "baseColorTexture": {
          "index": 0
        },
        "metallicFactor": 0.0,
        "metallicRoughnessTexture": {
          "index": 1
        }
      }
    }
  ],
  "meshes": [
    {
      "name": "Melon_Melon_0",
      "primitives": [
        {
          "attributes": {
            "NORMAL": 1,
            "POSITION": 0,
            "TANGENT": 2,
            "TEXCOORD_0": 3,
            "TEXCOORD_1": 4,
            "TEXCOORD_2": 5
          },
          "indices": 6,
          "material": 0,
          "mode": 4
        }
      ]
    }
  ],
  "nodes": [
    {
      "children": [
        1
      ],
      "matrix": [
        1.0,
        0.0,
        0.0,
        0.0,
        0.0,
        2.220446049250313e-16,
        -1.0,
        0.0,
        0.0,
        1.0,
        2.220446049250313e-16,
        0.0,
        0.0,
        0.0,
        0.0,
        1.0
      ],
      "name": "Sketchfab_model"
    },
    {
      "children": [
        2
      ],
      "matrix": [
        0.009999999776482582,
        0.0,
        0.0,
        0.0,
        0.0,
        0.0,
        0.009999999776482582,
        0.0,
        0.0,
        -0.009999999776482582,
        0.0,
        0.0,
        0.0,
        0.0,
        0.0,
        1.0
      ],
      "name": "47113b4c480f48f5b1d7f97028639302.fbx"
    },
    {
      "children": [
        3
      ],
      "name": "RootNode"
    },
    {
      "children": [
        4
      ],
      "matrix": [
        1.0,
        0.0,
        0.0,
        0.0,
        0.0,
        0.9999999999999867,
        1.6292067073209113e-07,
        0.0,
        0.0,
        -1.6292067073209113e-07,
        0.9999999999999867,
        0.0,
        0.0,
        0.0,
        0.0,
        1.0
      ],
      "name": "Melon"
    },
    {
      "mesh": 0,
      "name": "Melon_Melon_0"
    }
  ],
  "samplers": [
    {
      "magFilter": 9729,
      "minFilter": 9987,
      "wrapS": 10497,
      "wrapT": 10497
    }
  ],
  "scene": 0,
  "scenes": [
    {
      "name": "Sketchfab_Scene",
      "nodes": [
        0
      ]
    }
  ],
  "textures": [
    {
      "sampler": 0,
      "source": 0
    },
    {
      "sampler": 0,
      "source": 1
    },
    {
      "sampler": 0,
      "source": 2
    }
  ]
}
